HIERARCHY
ROOT Hips
{
	OFFSET 0.000000 0.000000 0.000000
	CHANNELS 6 Xposition Yposition Zposition Xrotation Yrotation Zrotation
	JOINT LeftUpLeg_virtual
	{
		OFFSET 0.000000 0.000000 0.000000
		CHANNELS 3 Xrotation Yrotation Zrotation
		JOINT LeftUpLeg
		{
			OFFSET 15.427100 -6.655098 0.678600
			CHANNELS 3 Xrotation Yrotation Zrotation
			JOINT LeftLeg
			{
				OFFSET 4.081073 -39.591068 13.024000
				CHANNELS 3 Xrotation Yrotation Zrotation
				JOINT LeftFoot
				{
					OFFSET -4.081074 -37.707932 -15.979700
					CHANNELS 3 Xrotation Yrotation Zrotation
					JOINT LeftToeBase
					{
						OFFSET 5.346399 -15.068900 20.645000
						CHANNELS 3 Xrotation Yrotation Zrotation
						JOINT LeftToe_End
						{
							OFFSET 2.754700 0.931300 11.300900
							CHANNELS 3 Xrotation Yrotation Zrotation
							End Site
							{
								OFFSET 0 0 0
							}
						}
					}
				}
			}
		}
	}
	JOINT RightUpLeg_virtual
	{
		OFFSET 0.000000 0.000000 0.000000
		CHANNELS 3 Xrotation Yrotation Zrotation
		JOINT RightUpLeg
		{
			OFFSET -15.569500 -6.655098 0.678600
			CHANNELS 3 Xrotation Yrotation Zrotation
			JOINT RightLeg
			{
				OFFSET -4.081825 -39.591045 13.023800
				CHANNELS 3 Xrotation Yrotation Zrotation
				JOINT RightFoot
				{
					OFFSET 4.081824 -37.707954 -15.979600
					CHANNELS 3 Xrotation Yrotation Zrotation
					JOINT RightToeBase
					{
						OFFSET -5.346400 -15.068900 20.645000
						CHANNELS 3 Xrotation Yrotation Zrotation
						JOINT RightToe_End
						{
							OFFSET -2.754700 0.931300 11.300900
							CHANNELS 3 Xrotation Yrotation Zrotation
							End Site
							{
								OFFSET 0 0 0
							}
						}
					}
				}
			}
		}
	}
	JOINT Spine_virtual
	{
		OFFSET 0.000000 0.000000 0.000000
		CHANNELS 3 Xrotation Yrotation Zrotation
		JOINT Spine
		{
			OFFSET -0.279200 12.230698 -2.892100
			CHANNELS 3 Xrotation Yrotation Zrotation
			JOINT Spine1
			{
				OFFSET -0.232667 10.192268 -1.242267
				CHANNELS 3 Xrotation Yrotation Zrotation
				JOINT Spine1_split
				{
					OFFSET -0.232667 10.192268 -1.242267
					CHANNELS 3 Xrotation Yrotation Zrotation
					JOINT Spine2
					{
						OFFSET -0.232667 10.192268 -1.242267
						CHANNELS 3 Xrotation Yrotation Zrotation
						JOINT Neck_virtual
						{
							OFFSET 0.000000 0.000000 0.000000
							CHANNELS 3 Xrotation Yrotation Zrotation
							JOINT Neck
							{
								OFFSET -0.418800 17.814194 8.416900
								CHANNELS 3 Xrotation Yrotation Zrotation
								JOINT Head
								{
									OFFSET 0.000000 7.031097 3.806800
									CHANNELS 3 Xrotation Yrotation Zrotation
									JOINT HeadTop_End
									{
										OFFSET 0.000000 24.646606 12.978600
										CHANNELS 3 Xrotation Yrotation Zrotation
										End Site
										{
											OFFSET 0 0 0
										}
									}
								}
							}
						}
						JOINT LeftShoulder_virtual
						{
							OFFSET 0.000000 0.000000 0.000000
							CHANNELS 3 Xrotation Yrotation Zrotation
							JOINT LeftShoulder
							{
								OFFSET 8.476499 7.247704 -3.868750
								CHANNELS 3 Xrotation Yrotation Zrotation
								JOINT LeftShoulder_split
								{
									OFFSET 8.476499 7.247704 -3.868750
									CHANNELS 3 Xrotation Yrotation Zrotation
									JOINT LeftArm
									{
										OFFSET 9.308998 -2.777710 0.208600
										CHANNELS 3 Xrotation Yrotation Zrotation
										JOINT LeftForeArm
										{
											OFFSET 29.972298 0.000000 0.000000
											CHANNELS 3 Xrotation Yrotation Zrotation
											JOINT LeftHand
											{
												OFFSET 26.026505 0.000000 0.000000
												CHANNELS 3 Xrotation Yrotation Zrotation
												End Site
												{
													OFFSET 0 0 0
												}
											}
										}
									}
								}
							}
						}
						JOINT RightShoulder_virtual
						{
							OFFSET 0.000000 0.000000 0.000000
							CHANNELS 3 Xrotation Yrotation Zrotation
							JOINT RightShoulder
							{
								OFFSET -7.570500 7.247704 -3.868750
								CHANNELS 3 Xrotation Yrotation Zrotation
								JOINT RightShoulder_split
								{
									OFFSET -7.570500 7.247704 -3.868750
									CHANNELS 3 Xrotation Yrotation Zrotation
									JOINT RightArm
									{
										OFFSET -9.308998 -2.777710 0.208500
										CHANNELS 3 Xrotation Yrotation Zrotation
										JOINT RightForeArm
										{
											OFFSET -29.972300 0.000000 0.000000
											CHANNELS 3 Xrotation Yrotation Zrotation
											JOINT RightHand
											{
												OFFSET -26.026505 0.000000 0.000000
												CHANNELS 3 Xrotation Yrotation Zrotation
												End Site
												{
													OFFSET 0 0 0
												}
											}
										}
									}
								}
							}
						}
					}
				}
			}
		}
	}
}
MOTION
Frames: 8
Frame Time: 0.03333333
0.787262 10.132332 -0.002846 0.000000 0.000000 0.000000 -89.747190 -3.916690 -3.113907 -20.615538 12.861885 -4.097830 27.144777 -7.730382 -7.649052 2.022976 8.357604 7.651195 9.577696 -0.354294 2.437668 0.000000 0.000000 0.000000 -91.256634 -4.781552 -6.728921 -8.177750 -7.247044 -4.759337 17.197921 -0.110996 9.626359 8.866502 -5.089614 24.475641 -0.792726 -0.344954 0.333663 0.000000 0.000000 0.000000 -87.473222 -4.821273 -6.196723 3.832850 2.963420 1.839875 -1.566529 1.033231 -0.108947 0.458391 0.811266 -0.301825 0.000000 0.000000 0.000000 -2.228247 0.524776 0.173747 2.744355 1.490916 0.062651 7.435065 1.471017 12.736267 0.000000 0.000000 0.000000 -3.059606 1.180686 0.061365 1.111744 -15.606492 -2.280445 -2.948548 0.062655 -4.051950 28.547635 0.283407 -71.039192 -178.730218 -39.741063 -178.430933 0.000000 0.000000 0.000000 -2.119716 0.870976 -0.847463 1.023639 1.565276 0.622418 0.781453 4.325435 0.300099 13.760609 6.675495 72.623701 -179.850888 45.999476 -179.262372 0.000000 0.000000 0.000000 
0.784482 10.127937 0.015919 0.000000 0.000000 0.000000 -89.753986 -3.909776 -3.108290 -20.638783 12.842194 -4.089752 27.189953 -7.734803 -7.666460 1.995195 8.326853 7.675047 9.577482 -0.356793 2.433788 0.000000 0.000000 0.000000 -91.254845 -4.769562 -6.717777 -8.210488 -7.256586 -4.757260 17.288916 -0.097425 9.630423 8.808787 -5.087505 24.476861 -0.729731 -0.344082 0.332167 0.000000 0.000000 0.000000 -87.478570 -4.817268 -6.191006 3.836482 2.954369 1.851648 -1.568147 1.031966 -0.112778 0.467674 0.811738 -0.297138 0.000000 0.000000 0.000000 -2.234265 0.527345 0.173073 2.789789 1.498351 0.055042 7.484958 0.886526 12.813895 0.000000 0.000000 0.000000 -3.059388 1.180124 0.065142 1.114955 -15.616220 -2.269781 -2.946435 0.086498 -4.067788 28.536319 0.379006 -71.062681 -178.712856 -39.591864 -178.394651 0.000000 0.000000 0.000000 -2.136881 0.864738 -0.846734 1.024045 1.627494 0.613029 0.768887 4.309057 0.301822 13.682585 6.657464 72.678438 -179.850328 45.985119 -179.270773 0.000000 0.000000 0.000000 
0.781891 10.123234 0.036015 0.000000 0.000000 0.000000 -89.758835 -3.895379 -3.106039 -20.667731 12.836151 -4.076128 27.245345 -7.737507 -7.687543 1.957527 8.291635 7.713346 9.573085 -0.358952 2.431847 0.000000 0.000000 0.000000 -91.258041 -4.753757 -6.713975 -8.233294 -7.265683 -4.750571 17.363966 -0.082525 9.635379 8.752862 -5.076089 24.484000 -0.672093 -0.343124 0.329149 0.000000 0.000000 0.000000 -87.482169 -4.812507 -6.190887 3.844718 2.950490 1.873018 -1.570177 1.033170 -0.114368 0.475515 0.806970 -0.300470 0.000000 0.000000 0.000000 -2.237788 0.532583 0.172684 2.821792 1.511461 0.053401 7.539005 0.406644 12.857397 0.000000 0.000000 0.000000 -3.057936 1.182234 0.070998 1.114381 -15.617868 -2.280676 -2.929810 0.105796 -4.073984 28.457140 0.460680 -71.066151 -178.698034 -39.472770 -178.365186 0.000000 0.000000 0.000000 -2.151269 0.861231 -0.846010 1.025276 1.672969 0.609602 0.754990 4.299726 0.306265 13.609230 6.666896 72.741009 -179.853279 45.996936 -179.271046 0.000000 0.000000 0.000000 
0.780314 10.120708 0.058495 0.000000 0.000000 0.000000 -89.760065 -3.875466 -3.104112 -20.697927 12.836584 -4.062772 27.299404 -7.742784 -7.707992 1.917621 8.249612 7.755419 9.565941 -0.361028 2.433292 0.000000 0.000000 0.000000 -91.262597 -4.736787 -6.715038 -8.242443 -7.272833 -4.743528 17.412947 -0.068820 9.640663 8.701340 -5.057528 24.500717 -0.623148 -0.342635 0.325940 0.000000 0.000000 0.000000 -87.484123 -4.807055 -6.192354 3.856333 2.951380 1.896756 -1.571379 1.037397 -0.113714 0.473600 0.801472 -0.307709 0.000000 0.000000 0.000000 -2.237862 0.540932 0.172504 2.834810 1.518596 0.063893 7.588654 0.000287 12.885218 0.000000 0.000000 0.000000 -3.054204 1.188106 0.077656 1.111667 -15.616785 -2.311700 -2.904785 0.119836 -4.060498 28.351531 0.498353 -71.053672 -178.688950 -39.429883 -178.347099 0.000000 0.000000 0.000000 -2.159863 0.861649 -0.845490 1.026246 1.695912 0.608462 0.738107 4.292639 0.307115 13.543478 6.691713 72.797297 -179.859330 46.006979 -179.266934 0.000000 0.000000 0.000000 
0.778948 10.121151 0.080559 0.000000 0.000000 0.000000 -89.758508 -3.856361 -3.103782 -20.726843 12.835298 -4.054060 27.347109 -7.758589 -7.723243 1.887010 8.197206 7.787009 9.558551 -0.363368 2.438906 0.000000 0.000000 0.000000 -91.264612 -4.719978 -6.717031 -8.241749 -7.279856 -4.738958 17.439384 -0.059927 9.645758 8.652124 -5.037433 24.528097 -0.583233 -0.343205 0.324449 0.000000 0.000000 0.000000 -87.483979 -4.800554 -6.192450 3.870562 2.956151 1.916516 -1.570706 1.045692 -0.110970 0.466977 0.790276 -0.311540 0.000000 0.000000 0.000000 -2.234904 0.551959 0.172454 2.829179 1.512611 0.085668 7.632601 -0.357086 12.910651 0.000000 0.000000 0.000000 -3.047777 1.196633 0.082885 1.109992 -15.614545 -2.353216 -2.877441 0.129787 -4.038747 28.251650 0.483879 -71.030600 -178.684797 -39.490279 -178.338056 0.000000 0.000000 0.000000 -2.161707 0.866902 -0.844649 1.025922 1.695036 0.599665 0.722623 4.284279 0.311659 13.486230 6.714144 72.834351 -179.865969 45.992933 -179.262850 0.000000 0.000000 0.000000 
0.779087 10.122322 0.102531 0.000000 0.000000 0.000000 -89.755147 -3.841981 -3.105145 -20.754872 12.829715 -4.049376 27.390227 -7.785030 -7.732949 1.870369 8.135128 7.804890 9.555455 -0.365754 2.446470 0.000000 0.000000 0.000000 -91.264537 -4.705748 -6.718864 -8.236393 -7.288358 -4.738917 17.453783 -0.057562 9.650449 8.598085 -5.022883 24.562750 -0.546145 -0.344903 0.325961 0.000000 0.000000 0.000000 -87.482135 -4.795196 -6.190431 3.887951 2.963491 1.929410 -1.567480 1.057550 -0.106664 0.459728 0.776917 -0.316939 0.000000 0.000000 0.000000 -2.229750 0.564752 0.173048 2.808119 1.491360 0.114726 7.671131 -0.682418 12.941597 0.000000 0.000000 0.000000 -3.040005 1.206262 0.086110 1.110743 -15.603822 -2.396246 -2.854270 0.133435 -4.017567 28.179392 0.436009 -71.001121 -178.683910 -39.639662 -178.333753 0.000000 0.000000 0.000000 -2.158352 0.875613 -0.843432 1.024911 1.675727 0.578554 0.711106 4.280986 0.322579 13.442659 6.718025 72.851009 -179.873387 45.952843 -179.259421 0.000000 0.000000 0.000000 
0.780224 10.123020 0.121754 0.000000 0.000000 0.000000 -89.751834 -3.833755 -3.108010 -20.787110 12.819825 -4.047950 27.434309 -7.815914 -7.737161 1.867150 8.068039 7.811886 9.560422 -0.367562 2.452548 0.000000 0.000000 0.000000 -91.259886 -4.694379 -6.718655 -8.232424 -7.298833 -4.743797 17.469877 -0.062210 9.653875 8.530826 -5.018538 24.602382 -0.503134 -0.347579 0.330382 0.000000 0.000000 0.000000 -87.479403 -4.790770 -6.186555 3.907474 2.972256 1.935954 -1.562462 1.070777 -0.100945 0.453690 0.769743 -0.315370 0.000000 0.000000 0.000000 -2.223842 0.577007 0.174647 2.775397 1.457367 0.144170 7.705597 -0.979294 12.977763 0.000000 0.000000 0.000000 -3.031973 1.215519 0.088660 1.114033 -15.581600 -2.433247 -2.846518 0.132814 -4.008675 28.134123 0.391404 -70.976211 -178.683049 -39.815024 -178.325871 0.000000 0.000000 0.000000 -2.152740 0.885504 -0.840687 1.023864 1.647984 0.547913 0.707614 4.290583 0.338535 13.411145 6.702041 72.860544 -179.883468 45.903249 -179.253575 0.000000 0.000000 0.000000 
0.782499 10.122623 0.138184 0.000000 0.000000 0.000000 -89.748863 -3.830878 -3.112574 -20.825400 12.807631 -4.048034 27.485777 -7.847444 -7.737570 1.872147 8.000237 7.811733 9.568894 -0.368658 2.456218 0.000000 0.000000 0.000000 -91.252782 -4.687017 -6.718310 -8.235273 -7.309845 -4.750786 17.494327 -0.072330 9.655392 8.450041 -5.024260 24.646268 -0.453624 -0.350414 0.335921 0.000000 0.000000 0.000000 -87.475558 -4.788362 -6.182810 3.929366 2.981765 1.940206 -1.556948 1.083035 -0.094470 0.451741 0.768854 -0.312775 0.000000 0.000000 0.000000 -2.219031 0.587240 0.177599 2.737816 1.416215 0.167538 7.736548 -1.248192 13.014833 0.000000 0.000000 0.000000 -3.026859 1.222293 0.091687 1.119197 -15.541230 -2.456634 -2.842551 0.129673 -4.019912 28.095071 0.375820 -70.956704 -178.681273 -39.945344 -178.311801 0.000000 0.000000 0.000000 -2.148471 0.894535 -0.835976 1.023845 1.621925 0.512121 0.708352 4.312597 0.363527 13.392615 6.671885 72.880147 -179.896350 45.869351 -179.245010 0.000000 0.000000 0.000000 
